<?xml version="1.0" standalone="no"?>
<!DOCTYPE svg PUBLIC "-//W3C//DTD SVG 20010904//EN"
 "http://www.w3.org/TR/2001/REC-SVG-20010904/DTD/svg10.dtd">
<svg version="1.0" xmlns="http://www.w3.org/2000/svg"
 width="152.000000pt" height="94.000000pt" viewBox="0 0 152.000000 94.000000"
 preserveAspectRatio="xMidYMid meet">

<g transform="translate(0.000000,94.000000) scale(0.100000,-0.100000)"
fill="#000000" stroke="none">
<path d="M1122 713 c-18 -7 -32 -46 -25 -71 6 -23 81 -48 97 -32 16 16 26 11
26 -11 0 -36 19 -59 48 -59 22 1 24 2 10 10 -9 6 -19 28 -23 51 -4 22 -15 45
-25 51 -10 6 -16 17 -13 23 11 30 -52 55 -95 38z"/>
<path d="M570 661 c0 -11 -9 -22 -21 -26 -13 -5 -18 -12 -14 -22 4 -13 3 -14
-10 -3 -12 10 -21 10 -42 1 -24 -11 -173 -51 -200 -53 -7 -1 -11 -4 -10 -7 1
-3 -9 -23 -21 -43 -26 -42 -49 -47 -96 -23 -38 20 -45 11 -16 -20 26 -28 84
-34 122 -14 18 10 20 9 15 -6 -4 -9 -7 -23 -7 -31 0 -8 -6 -14 -14 -14 -7 0
-19 -6 -25 -14 -16 -19 8 -90 33 -94 32 -6 40 14 16 38 -16 16 -19 25 -11 33
8 8 23 5 56 -11 54 -26 65 -27 65 -7 0 8 -13 21 -30 30 -62 32 -27 75 58 73
31 -2 67 1 80 5 27 10 29 -7 7 -49 -34 -65 -9 -73 32 -11 31 46 78 63 95 33
15 -27 29 -18 26 17 -3 28 -7 32 -35 35 -18 2 -33 7 -33 13 0 5 4 9 8 9 5 0
15 18 22 40 10 30 19 40 34 40 12 0 28 5 36 10 12 8 10 10 -8 10 -13 0 -20 4
-17 10 3 6 15 10 26 10 10 0 19 7 19 15 0 9 -9 15 -23 15 -13 0 -27 4 -32 9
-6 5 -27 12 -47 15 -33 6 -38 5 -38 -13z"/>
<path d="M1363 596 c-84 -25 -93 -31 -58 -40 37 -9 165 31 158 50 -6 17 -11
17 -100 -10z"/>
<path d="M1059 603 c-18 -4 -59 -72 -59 -96 0 -9 10 -23 21 -31 20 -13 21 -18
10 -44 -9 -22 -10 -48 -2 -107 11 -77 11 -77 -17 -114 -66 -83 -85 -120 -72
-136 7 -8 18 -15 25 -15 7 0 41 38 75 85 l61 85 -6 55 c-4 30 -5 55 -3 55 9 0
98 -32 98 -35 0 -2 -13 -24 -30 -48 -16 -25 -30 -52 -30 -60 0 -21 29 -30 47
-15 29 24 94 129 91 146 -2 10 -21 23 -45 31 -36 13 -42 19 -47 53 -4 23 -1
50 8 70 l14 33 1 -33 c1 -19 7 -35 16 -38 20 -8 125 35 125 50 0 23 -12 25
-47 11 -47 -20 -53 -19 -53 9 0 59 -103 110 -181 89z m1 -85 c0 -16 -3 -19
-11 -11 -6 6 -8 16 -5 22 11 17 16 13 16 -11z"/>
<path d="M654 499 c-5 -8 -3 -9 6 -4 7 4 16 2 22 -6 8 -12 9 -12 6 0 -6 20
-24 25 -34 10z"/>
<path d="M900 459 c-36 -10 -77 -19 -92 -19 -16 0 -28 -4 -28 -10 0 -5 -19
-14 -42 -21 -66 -17 -611 -179 -614 -182 -2 -1 1 -8 5 -15 6 -10 79 8 317 77
170 50 314 91 321 91 25 0 12 -20 -58 -90 -55 -54 -77 -70 -100 -70 -22 0 -29
-5 -29 -20 0 -19 7 -20 193 -20 181 0 195 1 212 20 18 19 17 20 -6 20 -32 0
-175 141 -166 164 5 13 153 66 186 66 20 0 7 25 -15 27 -10 1 -48 -7 -84 -18z
m-120 -199 l0 -40 -42 0 -42 0 39 40 c21 22 40 40 42 40 2 0 3 -18 3 -40z m78
5 c18 -19 32 -37 32 -40 0 -3 -18 -5 -40 -5 l-40 0 0 40 c0 22 4 40 8 40 5 0
23 -16 40 -35z"/>
</g>
</svg>
