<?xml version="1.0" standalone="no"?>
<!DOCTYPE svg PUBLIC "-//W3C//DTD SVG 20010904//EN"
 "http://www.w3.org/TR/2001/REC-SVG-20010904/DTD/svg10.dtd">
<svg version="1.0" xmlns="http://www.w3.org/2000/svg"
 width="207.000000pt" height="103.000000pt" viewBox="0 0 207.000000 103.000000"
 preserveAspectRatio="xMidYMid meet">

<g transform="translate(0.000000,103.000000) scale(0.100000,-0.100000)"
fill="#000000" stroke="none">
<path d="M779 878 c-1 -7 -1 -16 0 -20 0 -4 -11 -5 -24 -2 -14 2 -25 0 -25 -6
0 -6 -4 -9 -9 -6 -5 3 -26 -1 -47 -10 -22 -9 -66 -23 -99 -30 -88 -21 -107
-31 -137 -75 -30 -42 -48 -47 -92 -24 -33 18 -36 18 -36 5 0 -5 10 -19 23 -30
18 -18 31 -21 69 -17 43 4 47 2 51 -21 3 -14 -2 -36 -10 -48 -27 -42 2 -114
46 -114 17 0 13 30 -4 36 -17 7 -20 59 -4 70 6 3 23 -6 39 -21 30 -29 63 -30
68 -2 2 11 -3 17 -16 17 -10 0 -28 10 -40 23 -20 21 -21 25 -6 45 13 19 24 22
77 21 34 0 74 4 90 10 33 13 36 -1 7 -44 -42 -63 -11 -77 32 -15 22 32 34 40
58 40 20 0 30 -5 30 -15 0 -8 7 -15 16 -15 11 0 14 8 12 33 -3 28 -7 32 -35
35 -39 4 -43 25 -12 58 17 19 26 21 46 13 33 -12 42 -3 17 17 -19 15 -19 15 1
10 19 -5 55 9 45 16 -34 25 -117 78 -123 78 -4 0 -8 -6 -8 -12z"/>
<path d="M1796 799 c-8 -42 0 -50 9 -9 4 17 5 34 2 36 -2 3 -7 -10 -11 -27z"/>
<path d="M1490 806 c0 -8 -3 -21 -6 -30 -4 -11 0 -16 14 -16 12 0 24 5 27 10
5 8 11 7 20 0 18 -15 35 -4 35 21 0 21 -15 26 -26 8 -5 -8 -10 -6 -16 5 -11
20 -48 21 -48 2z m30 -16 c0 -11 -4 -20 -10 -20 -5 0 -10 9 -10 20 0 11 5 20
10 20 6 0 10 -9 10 -20z m50 -5 c0 -8 -4 -15 -10 -15 -5 0 -7 7 -4 15 4 8 8
15 10 15 2 0 4 -7 4 -15z"/>
<path d="M1671 793 c-1 -18 4 -33 9 -33 12 0 12 17 0 45 -7 17 -9 15 -9 -12z"/>
<path d="M1697 814 c-7 -13 2 -54 13 -54 6 0 30 44 30 55 0 15 -20 2 -21 -12
0 -16 -1 -16 -8 1 -4 11 -10 15 -14 10z"/>
<path d="M1820 792 c0 -20 5 -28 18 -29 21 -2 28 37 9 49 -21 13 -27 9 -27
-20z"/>
<path d="M1597 803 c-11 -18 -4 -63 10 -63 14 0 20 10 25 45 3 19 -25 34 -35
18z m19 -30 c-10 -10 -19 5 -10 18 6 11 8 11 12 0 2 -7 1 -15 -2 -18z"/>
<path d="M1747 803 c-15 -15 -7 -43 13 -43 15 0 20 7 20 25 0 24 -18 34 -33
18z m15 -25 c-7 -7 -12 -8 -12 -2 0 14 12 26 19 19 2 -3 -1 -11 -7 -17z"/>
<path d="M1082 754 c-33 -23 -28 -85 8 -95 23 -6 22 -7 -7 -8 -36 -1 -63 -23
-88 -72 -16 -31 -16 -32 8 -57 24 -24 25 -26 10 -58 -15 -31 -15 -37 5 -91 17
-45 19 -60 10 -66 -7 -4 -37 -21 -65 -38 -37 -20 -53 -36 -53 -50 0 -36 28
-32 116 16 92 50 87 43 67 115 -6 23 -2 21 44 -17 44 -37 52 -50 68 -110 22
-83 32 -103 50 -103 30 0 32 31 8 119 -21 74 -29 91 -64 119 -37 32 -39 36
-39 92 0 32 3 65 6 74 10 26 24 18 24 -13 0 -25 6 -31 56 -51 46 -19 57 -21
64 -10 12 20 4 28 -39 41 -34 10 -39 16 -48 54 -9 40 -8 42 11 37 19 -5 20 -4
5 11 -9 8 -19 34 -23 57 -3 22 -13 43 -21 46 -8 4 -15 14 -15 25 0 20 -36 49
-60 49 -9 0 -26 -7 -38 -16z m98 -112 c0 -9 -6 -12 -16 -8 -9 3 -22 6 -30 6
-28 0 -13 15 16 16 20 1 30 -4 30 -14z m14 -38 c3 -8 2 -12 -4 -9 -6 3 -10 10
-10 16 0 14 7 11 14 -7z m-151 -39 c4 -8 2 -17 -3 -20 -6 -4 -10 3 -10 14 0
25 6 27 13 6z"/>
<path d="M845 721 c-6 -11 13 -26 22 -17 4 3 0 6 -8 6 -11 0 -11 2 1 10 9 6
10 10 3 10 -6 0 -14 -4 -18 -9z"/>
<path d="M345 365 c-154 -112 -280 -210 -280 -216 0 -7 5 -14 10 -15 6 -2 127
82 270 186 143 104 262 190 265 190 3 0 4 -76 2 -170 -3 -161 -4 -170 -22
-170 -13 0 -20 -7 -20 -20 0 -18 7 -20 66 -20 57 0 65 2 62 18 -2 9 -13 18
-26 20 -22 3 -22 5 -22 182 l0 179 157 3 c141 3 158 5 161 21 3 16 -10 17
-170 17 l-173 -1 -280 -204z"/>
<path d="M1240 550 c0 -19 7 -20 110 -20 l110 0 0 -180 0 -180 -25 0 c-18 0
-25 -5 -25 -20 0 -18 7 -20 65 -20 59 0 65 2 65 20 0 12 -6 20 -12 19 -37 -5
-38 -2 -38 171 0 94 2 170 5 170 6 0 207 -145 390 -280 137 -101 145 -106 155
-89 5 7 6 17 2 20 -4 4 -132 97 -285 208 l-278 201 -119 0 c-113 0 -120 -1
-120 -20z"/>
</g>
</svg>
