<?xml version="1.0" standalone="no"?>
<!DOCTYPE svg PUBLIC "-//W3C//DTD SVG 20010904//EN"
 "http://www.w3.org/TR/2001/REC-SVG-20010904/DTD/svg10.dtd">
<svg version="1.0" xmlns="http://www.w3.org/2000/svg"
 width="121.000000pt" height="94.000000pt" viewBox="0 0 121.000000 94.000000"
 preserveAspectRatio="xMidYMid meet">

<g transform="translate(0.000000,94.000000) scale(0.100000,-0.100000)"
fill="#000000" stroke="none">
<path d="M250 784 c0 -27 4 -43 10 -39 6 3 10 24 10 46 0 21 -4 39 -10 39 -5
0 -10 -21 -10 -46z"/>
<path d="M460 475 l0 -354 -72 -3 c-46 -2 -73 -7 -76 -15 -3 -10 34 -13 162
-13 141 0 166 2 166 15 0 12 -15 15 -75 15 l-75 0 0 355 c0 309 -2 355 -15
355 -13 0 -15 -46 -15 -355z"/>
<path d="M325 786 c-17 -7 -38 -24 -47 -38 -21 -31 -48 -123 -48 -160 0 -46
17 -23 23 31 7 61 29 105 62 127 23 15 27 15 51 -1 76 -49 90 -264 23 -349
-26 -33 -71 -35 -92 -5 -11 15 -17 17 -23 8 -4 -8 5 -23 25 -41 42 -38 83 -37
122 1 l29 29 0 174 0 174 -27 26 c-37 34 -61 40 -98 24z"/>
<path d="M551 692 c-6 -2 -11 -10 -11 -18 0 -8 -6 -14 -14 -14 -20 0 -26 -23
-26 -92 0 -48 3 -59 14 -55 10 4 16 -2 18 -16 2 -18 9 -21 31 -19 19 3 33 -3
42 -15 13 -17 14 -17 20 -1 12 31 1 53 -28 56 -33 4 -33 7 -6 52 26 42 36 50
68 50 16 0 21 4 17 15 -3 8 -1 15 4 15 22 0 7 17 -28 33 -35 16 -72 19 -101 9z"/>
<path d="M880 660 c-21 -21 -27 -65 -10 -75 17 -10 11 -23 -14 -29 -25 -6 -66
-65 -66 -95 0 -10 10 -25 21 -33 20 -13 21 -16 8 -51 -13 -37 -11 -54 17 -138
4 -12 -12 -26 -60 -53 -67 -37 -78 -54 -52 -76 12 -9 31 -3 96 31 45 23 84 48
87 55 3 8 0 28 -6 45 -6 18 -10 33 -8 35 1 1 23 -14 49 -33 42 -33 49 -43 67
-112 11 -41 27 -82 36 -90 13 -14 17 -14 31 1 15 14 14 24 -11 109 -24 84 -30
97 -66 123 -36 28 -39 33 -39 80 0 50 18 116 31 116 4 0 10 -9 14 -19 13 -41
31 -45 95 -21 44 16 60 27 60 41 0 23 -1 23 -62 2 -43 -16 -50 -16 -58 -3 -5
9 -6 16 0 18 4 2 2 15 -5 30 -7 15 -17 40 -22 57 -4 16 -19 35 -32 41 -21 11
-21 12 -5 16 18 3 17 5 -4 26 -27 27 -66 28 -92 2z m104 -105 c4 -19 14 -41
22 -50 9 -8 11 -15 5 -15 -6 0 -17 14 -26 30 -9 17 -23 30 -32 30 -15 0 -15 2
2 13 11 9 15 19 10 27 -5 8 -4 11 2 7 6 -4 14 -22 17 -42z m-134 -87 c0 -16
-3 -19 -11 -11 -6 6 -8 16 -5 22 11 17 16 13 16 -11z"/>
<path d="M262 605 c0 -16 2 -22 5 -12 2 9 2 23 0 30 -3 6 -5 -1 -5 -18z"/>
<path d="M329 585 c-100 -35 -190 -81 -226 -115 -18 -17 -33 -33 -33 -35 0
-10 91 25 120 45 38 27 55 16 46 -28 -5 -19 -17 -34 -34 -41 -50 -23 -92 -56
-92 -73 0 -24 13 -23 47 5 15 13 44 29 63 36 19 8 54 34 77 60 36 39 47 46 80
46 l38 0 3 63 c3 72 6 71 -89 37z"/>
<path d="M250 326 l0 -56 -60 0 c-47 0 -60 -3 -60 -15 0 -13 20 -15 130 -14
105 1 130 4 130 15 0 10 -15 14 -60 14 l-60 0 0 49 c0 28 -4 53 -10 56 -6 4
-10 -15 -10 -49z"/>
</g>
</svg>
