<?xml version="1.0" standalone="no"?>
<!DOCTYPE svg PUBLIC "-//W3C//DTD SVG 20010904//EN"
 "http://www.w3.org/TR/2001/REC-SVG-20010904/DTD/svg10.dtd">
<svg version="1.0" xmlns="http://www.w3.org/2000/svg"
 width="230.000000pt" height="91.000000pt" viewBox="0 0 230.000000 91.000000"
 preserveAspectRatio="xMidYMid meet">

<g transform="translate(0.000000,91.000000) scale(0.100000,-0.100000)"
fill="#000000" stroke="none">
<path d="M1006 802 c-3 -5 1 -9 9 -9 8 0 12 4 9 9 -3 4 -7 8 -9 8 -2 0 -6 -4
-9 -8z"/>
<path d="M288 755 c2 -14 8 -25 12 -25 4 0 10 11 12 25 4 19 1 25 -12 25 -13
0 -16 -6 -12 -25z"/>
<path d="M672 755 c2 -14 8 -26 13 -26 6 0 11 12 13 26 2 18 -1 25 -13 25 -12
0 -15 -7 -13 -25z"/>
<path d="M964 764 c3 -9 6 -22 6 -30 0 -8 5 -14 10 -14 6 0 10 14 10 30 0 21
-5 30 -16 30 -11 0 -14 -5 -10 -16z"/>
<path d="M1360 755 c0 -16 6 -25 15 -25 9 0 15 9 15 25 0 16 -6 25 -15 25 -9
0 -15 -9 -15 -25z"/>
<path d="M1710 755 c0 -16 6 -25 15 -25 9 0 15 9 15 25 0 16 -6 25 -15 25 -9
0 -15 -9 -15 -25z"/>
<path d="M2070 755 c0 -16 6 -25 15 -25 9 0 15 9 15 25 0 16 -6 25 -15 25 -9
0 -15 -9 -15 -25z"/>
<path d="M1842 734 c-18 -12 -22 -24 -20 -52 3 -33 6 -37 43 -44 50 -11 72 -4
55 17 -8 10 -9 15 -1 15 6 0 13 -12 16 -27 3 -16 12 -41 21 -58 l14 -30 -27
32 c-22 25 -39 34 -74 39 -58 8 -83 -5 -110 -58 l-21 -41 25 -25 c25 -24 25
-26 9 -59 -15 -31 -15 -37 2 -81 10 -26 19 -53 20 -60 0 -6 -26 -27 -59 -45
-61 -34 -83 -71 -51 -83 17 -6 175 73 183 91 2 7 -3 29 -11 49 -8 20 -13 36
-10 36 3 0 27 -18 53 -40 43 -37 50 -47 67 -116 19 -78 33 -100 59 -90 20 7
19 34 -6 127 -19 67 -27 82 -60 109 -38 30 -39 33 -39 93 0 63 14 107 24 77 3
-8 6 -23 8 -34 2 -11 21 -25 53 -37 62 -24 65 -24 65 0 0 13 -11 23 -35 31
-37 12 -55 35 -55 69 0 13 7 21 18 21 12 0 13 3 5 8 -7 5 -20 32 -28 60 -9 29
-20 52 -25 52 -6 0 -10 9 -10 19 0 22 -35 51 -60 51 -9 0 -26 -7 -38 -16z
m-45 -196 c-3 -8 -6 -5 -6 6 -1 11 2 17 5 13 3 -3 4 -12 1 -19z"/>
<path d="M293 535 c6 -143 5 -165 -8 -165 -8 0 -15 -4 -15 -9 0 -6 72 -9 180
-8 99 1 180 1 180 -1 0 -1 -15 -16 -32 -32 -33 -29 -33 -29 -8 -30 14 0 38 13
57 32 l33 32 195 1 c106 0 197 4 201 8 4 4 -2 7 -13 7 -16 0 -19 5 -15 25 3
19 0 25 -12 25 -10 0 -15 4 -12 8 3 5 19 7 36 4 29 -4 30 -7 30 -51 0 -44 12
-71 32 -71 5 0 6 16 2 35 -8 44 7 46 38 5 24 -34 36 -37 45 -14 3 9 -5 27 -22
44 -16 17 -27 31 -24 33 69 55 79 59 109 47 32 -13 55 -5 30 10 -12 8 -11 10
6 10 36 0 33 10 -19 61 -54 53 -64 57 -74 33 -3 -9 -13 -14 -24 -11 -11 3 -20
-2 -24 -17 -7 -20 -7 -20 -14 4 -6 22 -14 26 -66 31 -66 8 -85 24 -85 75 0 31
-14 53 -23 37 -2 -5 -1 -39 4 -78 4 -38 11 -109 14 -157 l7 -88 -167 0 -167 0
6 58 c14 141 18 272 8 272 -15 0 -20 -32 -28 -187 l-7 -143 -148 0 c-82 0
-149 2 -149 5 0 2 15 12 33 21 18 10 26 19 19 22 -7 2 -24 -3 -37 -12 -13 -9
-29 -16 -35 -16 -6 0 -10 55 -10 155 0 138 -2 155 -17 155 -15 0 -16 -15 -10
-165z"/>
<path d="M1360 535 l0 -165 -70 0 c-38 0 -70 -4 -70 -9 0 -4 30 -8 68 -7 66 1
67 0 78 -29 7 -19 19 -31 33 -33 23 -4 24 2 5 53 -3 6 57 10 168 9 174 0 200
2 178 16 -9 6 -12 52 -12 169 0 135 -2 161 -14 161 -13 0 -15 -23 -12 -145 l3
-144 -22 6 c-27 6 -29 -4 -6 -29 16 -17 11 -18 -140 -18 l-157 0 0 165 c0 140
-2 165 -15 165 -13 0 -15 -25 -15 -165z"/>
<path d="M2070 586 c0 -89 3 -116 15 -126 13 -11 15 3 15 114 0 105 -2 126
-15 126 -12 0 -15 -19 -15 -114z"/>
<path d="M740 630 c0 -44 54 -90 106 -90 l27 0 -22 -24 c-15 -16 -29 -22 -46
-19 -20 4 -25 0 -34 -33 -14 -51 -14 -55 6 -70 23 -16 49 1 32 22 -13 16 -5
44 13 44 7 0 23 -18 36 -40 23 -40 62 -56 62 -25 0 8 -4 15 -8 15 -5 0 -14 12
-21 27 -11 24 -10 29 6 41 17 13 29 12 66 -3 14 -6 17 -2 17 26 0 19 -3 51 -6
72 -6 36 -8 37 -48 37 -22 0 -50 -7 -60 -15 -31 -24 -63 -18 -88 15 -22 30
-38 39 -38 20z"/>
<path d="M2074 400 c-6 -29 -8 -30 -68 -30 -33 0 -55 -4 -49 -8 7 -4 36 -7 65
-6 45 2 61 -3 110 -32 32 -20 66 -34 75 -32 13 2 4 12 -30 31 -26 15 -47 32
-47 37 0 6 -7 10 -15 10 -15 0 -19 10 -16 43 4 30 -19 19 -25 -13z"/>
<path d="M1245 140 c-4 -17 -5 -34 -2 -36 3 -3 8 9 12 26 4 17 5 34 2 36 -3 3
-8 -9 -12 -26z"/>
<path d="M856 133 c9 -37 9 -37 28 -7 10 14 15 29 11 32 -3 4 -10 0 -15 -8 -7
-10 -10 -11 -10 -2 0 6 -5 12 -10 12 -6 0 -8 -11 -4 -27z"/>
<path d="M900 135 c-19 -35 -5 -43 14 -8 16 27 16 27 14 4 -2 -14 3 -26 11
-29 8 -3 11 0 7 6 -3 5 1 12 9 16 9 3 15 0 15 -9 0 -8 9 -15 20 -15 15 0 20 7
20 25 0 20 -5 24 -27 23 -16 -1 -37 1 -49 5 -16 6 -24 1 -34 -18z m100 -4 c0
-6 -4 -13 -10 -16 -5 -3 -10 1 -10 9 0 9 5 16 10 16 6 0 10 -4 10 -9z"/>
<path d="M1140 130 l0 -30 25 22 c26 23 32 38 15 38 -5 0 -10 -7 -10 -16 0 -8
-5 -12 -10 -9 -6 4 -8 11 -5 16 4 5 1 9 -4 9 -6 0 -11 -13 -11 -30z"/>
<path d="M1026 133 c-4 -9 -2 -21 4 -27 14 -14 33 7 27 30 -4 15 -5 14 -6 -4
0 -13 -5 -21 -11 -17 -5 3 -7 12 -3 20 3 8 3 15 0 15 -3 0 -8 -8 -11 -17z"/>
<path d="M1077 143 c-14 -13 -7 -43 11 -43 13 0 14 2 4 9 -11 7 -11 9 2 14 9
4 16 11 16 17 0 11 -23 14 -33 3z"/>
<path d="M1193 134 c-7 -18 11 -39 26 -30 17 11 13 46 -4 46 -9 0 -18 -7 -22
-16z m19 -16 c-7 -7 -12 -8 -12 -2 0 14 12 26 19 19 2 -3 -1 -11 -7 -17z"/>
<path d="M1266 133 c-7 -17 1 -33 15 -33 6 0 8 4 5 9 -9 14 26 23 38 10 8 -9
8 -10 -1 -5 -7 4 -13 2 -13 -3 0 -6 7 -11 16 -11 11 0 15 6 11 20 -3 10 0 21
7 23 6 3 -8 5 -31 5 -27 0 -44 -5 -47 -15z"/>
</g>
</svg>
