<?xml version="1.0" standalone="no"?>
<!DOCTYPE svg PUBLIC "-//W3C//DTD SVG 20010904//EN"
 "http://www.w3.org/TR/2001/REC-SVG-20010904/DTD/svg10.dtd">
<svg version="1.0" xmlns="http://www.w3.org/2000/svg"
 width="171.000000pt" height="91.000000pt" viewBox="0 0 171.000000 91.000000"
 preserveAspectRatio="xMidYMid meet">

<g transform="translate(0.000000,91.000000) scale(0.100000,-0.100000)"
fill="#000000" stroke="none">
<path d="M890 693 c-14 -10 -32 -16 -42 -15 -9 2 -25 -9 -35 -24 -10 -14 -28
-37 -40 -51 -13 -13 -23 -27 -23 -31 0 -3 -19 -23 -42 -42 -25 -22 -39 -41
-34 -48 11 -18 22 -15 59 18 19 17 42 30 51 30 15 0 15 -3 2 -27 -8 -16 -30
-44 -50 -62 -20 -19 -36 -42 -36 -50 0 -8 33 -46 73 -85 71 -68 74 -74 92
-146 19 -81 34 -106 59 -97 21 8 20 31 -5 124 -18 67 -28 85 -71 129 l-50 52
18 31 c17 29 34 41 34 23 0 -9 97 -42 123 -42 10 0 17 7 17 14 0 9 -22 22 -55
32 -51 16 -71 37 -44 46 9 3 9 18 3 53 l-9 50 -40 -1 c-22 0 -49 -4 -60 -7
-12 -5 -11 -3 3 5 13 6 33 30 44 52 l21 41 8 -30 c15 -55 71 -73 109 -35 27
27 25 56 -5 85 -29 30 -42 31 -75 8z m-12 -179 c-3 -14 -5 -12 -10 9 -3 19 -2
25 4 19 6 -6 8 -18 6 -28z m-41 -51 c-3 -10 -5 -4 -5 12 0 17 2 24 5 18 2 -7
2 -21 0 -30z"/>
<path d="M252 568 c-39 -19 -73 -105 -74 -189 0 -91 14 -148 49 -189 26 -31
28 -31 87 -25 34 4 62 9 64 10 2 2 -7 23 -20 47 -19 37 -23 58 -22 143 0 94 6
123 41 186 2 4 -13 9 -34 12 -21 3 -45 7 -53 10 -8 3 -25 1 -38 -5z"/>
<path d="M1290 570 c-8 -5 -49 -10 -91 -10 l-75 0 -24 -42 c-47 -84 -36 -284
18 -330 11 -11 50 -17 119 -21 91 -5 104 -4 126 13 14 11 30 33 35 50 13 36 0
40 -16 6 -6 -14 -22 -32 -36 -41 -22 -15 -27 -15 -54 -1 -42 22 -67 91 -66
181 1 157 105 233 159 118 10 -21 20 -33 22 -26 5 15 -20 63 -43 84 -26 23
-56 30 -74 19z"/>
<path d="M389 537 c-27 -37 -41 -94 -41 -165 0 -81 14 -140 43 -176 19 -25 25
-26 111 -26 l91 0 -9 63 c-20 141 -10 234 34 320 2 4 -45 7 -105 7 -100 -1
-109 -2 -124 -23z"/>
<path d="M637 542 c-43 -47 -60 -155 -42 -260 8 -47 10 -48 80 -23 57 20 70
49 37 84 -20 21 -26 38 -23 64 0 7 19 29 41 49 49 45 54 68 6 26 -23 -20 -42
-29 -55 -25 -32 8 -32 31 0 68 l31 35 -29 0 c-17 0 -37 -8 -46 -18z"/>
<path d="M913 505 c2 -55 2 -56 40 -67 46 -14 62 -38 43 -64 -14 -18 -16 -18
-85 4 -104 34 -122 13 -47 -56 33 -31 48 -55 60 -96 l17 -56 83 0 83 0 -24 48
c-33 68 -41 165 -18 247 9 36 21 68 26 71 27 16 -1 24 -85 24 l-95 0 2 -55z"/>
<path d="M1483 487 c-13 -22 -131 -57 -190 -57 l-53 0 0 -58 0 -58 50 -18 c31
-11 63 -16 81 -12 26 5 35 1 57 -26 15 -17 29 -40 32 -50 7 -28 25 -27 28 3 2
15 -5 32 -18 44 -27 24 -28 50 -1 35 11 -5 31 -10 45 -10 14 0 37 -5 51 -12
14 -6 28 -8 32 -5 11 12 -29 47 -54 47 -38 0 -62 17 -56 40 6 23 19 25 53 5
35 -20 43 -18 29 7 -9 17 -9 20 3 15 8 -3 20 -2 26 2 7 4 -8 28 -39 64 -53 60
-63 66 -76 44z"/>
<path d="M743 294 c2 -24 -3 -29 -60 -48 -71 -24 -86 -36 -77 -59 8 -23 36
-21 124 11 89 32 98 51 45 95 l-34 28 2 -27z"/>
<path d="M810 215 c-7 -8 -18 -15 -24 -15 -6 -1 -24 -7 -41 -15 -29 -13 -29
-13 33 -14 53 -1 62 2 62 17 0 9 -4 23 -9 30 -6 10 -10 10 -21 -3z"/>
</g>
</svg>
